<?xml version="1.0" encoding="UTF-8" standalone="no"?>
<svg
   width="284.20mm"
   height="187.30mm"
   viewBox="0.0 0.0 284.20 187.30"
   version="1.1"
   id="svg4552"
   sodipodi:docname="ClosedBoxV1.svg"
   inkscape:version="1.2 (dc2aeda, 2022-05-15)"
   xmlns:inkscape="http://www.inkscape.org/namespaces/inkscape"
   xmlns:sodipodi="http://sodipodi.sourceforge.net/DTD/sodipodi-0.dtd"
   xmlns="http://www.w3.org/2000/svg"
   xmlns:svg="http://www.w3.org/2000/svg"
   xmlns:rdf="http://www.w3.org/1999/02/22-rdf-syntax-ns#"
   xmlns:cc="http://creativecommons.org/ns#"
   xmlns:dc="http://purl.org/dc/elements/1.1/">
  <defs
     id="defs4556" />
  <sodipodi:namedview
     id="namedview4554"
     pagecolor="#ffffff"
     bordercolor="#000000"
     borderopacity="0.25"
     inkscape:showpageshadow="2"
     inkscape:pageopacity="0.0"
     inkscape:pagecheckerboard="0"
     inkscape:deskcolor="#d1d1d1"
     inkscape:document-units="mm"
     showgrid="false"
     inkscape:zoom="0.94293487"
     inkscape:cx="320.80689"
     inkscape:cy="413.07201"
     inkscape:window-width="2056"
     inkscape:window-height="1201"
     inkscape:window-x="24"
     inkscape:window-y="242"
     inkscape:window-maximized="0"
     inkscape:current-layer="svg4552" />
  <!--
ClosedBox - Fully closed box


This box is more of a building block than a finished item.
Use a vector graphics program (like Inkscape) to add holes or adjust the base
plate.

See BasedBox for variant with a base.


Created with Boxes.py (https://festi.info/boxes.py)
Creation date: 2022-10-26 19:25:30
Command line (remove spaces between dashes): boxes ClosedBox - -FingerJoint_angle=90.0 - -FingerJoint_style=rectangular - -FingerJoint_surroundingspaces=2.0 - -FingerJoint_edge_width=1.0 - -FingerJoint_extra_length=0.0 - -FingerJoint_finger=2.0 - -FingerJoint_play=0.0 - -FingerJoint_space=2.0 - -FingerJoint_width=1.0 - -x=125 - -y=100 - -h=17 - -outside=0 - -thickness=3.0 - -format=svg - -tabs=0.0 - -debug=0 - -labels=0 - -labels=1 - -reference=100 - -inner_corners=loop - -burn=0.1
Url: http://www.festi.info/ClosedBox?FingerJoint_angle=90.0&FingerJoint_style=rectangular&FingerJoint_surroundingspaces=2.0&FingerJoint_edge_width=1.0&FingerJoint_extra_length=0.0&FingerJoint_finger=2.0&FingerJoint_play=0.0&FingerJoint_space=2.0&FingerJoint_width=1.0&x=125&y=100&h=17&outside=0&thickness=3.0&format=svg&tabs=0.0&debug=0&labels=0&labels=1&reference=100&inner_corners=loop&burn=0.1&render=1
SettingsUrl: http://www.festi.info/ClosedBox?FingerJoint_angle=90.0&FingerJoint_style=rectangular&FingerJoint_surroundingspaces=2.0&FingerJoint_edge_width=1.0&FingerJoint_extra_length=0.0&FingerJoint_finger=2.0&FingerJoint_play=0.0&FingerJoint_space=2.0&FingerJoint_width=1.0&x=125&y=100&h=17&outside=0&thickness=3.0&format=svg&tabs=0.0&debug=0&labels=0&labels=1&reference=100&inner_corners=loop&burn=0.1
-->
  <title
     id="title4513">ClosedBox</title>
  <metadata
     id="metadata4515">
    <rdf:RDF>
      <cc:Work>
        <dc:title>ClosedBox</dc:title>
        <dc:date>2022-10-26 19:25:30</dc:date>
        <dc:source>http://www.festi.info/ClosedBox?FingerJoint_angle=90.0&amp;FingerJoint_style=rectangular&amp;FingerJoint_surroundingspaces=2.0&amp;FingerJoint_edge_width=1.0&amp;FingerJoint_extra_length=0.0&amp;FingerJoint_finger=2.0&amp;FingerJoint_play=0.0&amp;FingerJoint_space=2.0&amp;FingerJoint_width=1.0&amp;x=125&amp;y=100&amp;h=17&amp;outside=0&amp;thickness=3.0&amp;format=svg&amp;tabs=0.0&amp;debug=0&amp;labels=0&amp;labels=1&amp;reference=100&amp;inner_corners=loop&amp;burn=0.1&amp;render=1</dc:source>
        <dc:description>Fully closed box

This box is more of a building block than a finished item.
Use a vector graphics program (like Inkscape) to add holes or adjust the base
plate.

See BasedBox for variant with a base.

Created with Boxes.py (https://festi.info/boxes.py)
Command line: boxes ClosedBox --FingerJoint_angle=90.0 --FingerJoint_style=rectangular --FingerJoint_surroundingspaces=2.0 --FingerJoint_edge_width=1.0 --FingerJoint_extra_length=0.0 --FingerJoint_finger=2.0 --FingerJoint_play=0.0 --FingerJoint_space=2.0 --FingerJoint_width=1.0 --x=125 --y=100 --h=17 --outside=0 --thickness=3.0 --format=svg --tabs=0.0 --debug=0 --labels=0 --labels=1 --reference=100 --inner_corners=loop --burn=0.1
Url: http://www.festi.info/ClosedBox?FingerJoint_angle=90.0&amp;FingerJoint_style=rectangular&amp;FingerJoint_surroundingspaces=2.0&amp;FingerJoint_edge_width=1.0&amp;FingerJoint_extra_length=0.0&amp;FingerJoint_finger=2.0&amp;FingerJoint_play=0.0&amp;FingerJoint_space=2.0&amp;FingerJoint_width=1.0&amp;x=125&amp;y=100&amp;h=17&amp;outside=0&amp;thickness=3.0&amp;format=svg&amp;tabs=0.0&amp;debug=0&amp;labels=0&amp;labels=1&amp;reference=100&amp;inner_corners=loop&amp;burn=0.1&amp;render=1
SettingsUrl: http://www.festi.info/ClosedBox?FingerJoint_angle=90.0&amp;FingerJoint_style=rectangular&amp;FingerJoint_surroundingspaces=2.0&amp;FingerJoint_edge_width=1.0&amp;FingerJoint_extra_length=0.0&amp;FingerJoint_finger=2.0&amp;FingerJoint_play=0.0&amp;FingerJoint_space=2.0&amp;FingerJoint_width=1.0&amp;x=125&amp;y=100&amp;h=17&amp;outside=0&amp;thickness=3.0&amp;format=svg&amp;tabs=0.0&amp;debug=0&amp;labels=0&amp;labels=1&amp;reference=100&amp;inner_corners=loop&amp;burn=0.1
</dc:description>
      </cc:Work>
    </rdf:RDF>
  </metadata>
  <g
     id="p-5"
     style="fill:none;stroke-linecap:round;stroke-linejoin:round;stroke:#ff0000;stroke-opacity:1;stroke-width:0.3;stroke-dasharray:none">
    <path
       d="M 13.400 113.200 H 24.800 C 24.900 113.200 24.800 113.100 24.800 113.200 V 116.100 C 24.800 116.155 24.845 116.200 24.900 116.200 H 30.900 C 30.955 116.200 31.000 116.155 31.000 116.100 V 113.200 C 31.000 113.100 30.900 113.200 31.000 113.200 H 36.800 C 36.900 113.200 36.800 113.100 36.800 113.200 V 116.100 C 36.800 116.155 36.845 116.200 36.900 116.200 H 42.900 C 42.955 116.200 43.000 116.155 43.000 116.100 V 113.200 C 43.000 113.100 42.900 113.200 43.000 113.200 H 48.800 C 48.900 113.200 48.800 113.100 48.800 113.200 V 116.100 C 48.800 116.155 48.845 116.200 48.900 116.200 H 54.900 C 54.955 116.200 55.000 116.155 55.000 116.100 V 113.200 C 55.000 113.100 54.900 113.200 55.000 113.200 H 60.800 C 60.900 113.200 60.800 113.100 60.800 113.200 V 116.100 C 60.800 116.155 60.845 116.200 60.900 116.200 H 66.900 C 66.955 116.200 67.000 116.155 67.000 116.100 V 113.200 C 67.000 113.100 66.900 113.200 67.000 113.200 H 72.800 C 72.900 113.200 72.800 113.100 72.800 113.200 V 116.100 C 72.800 116.155 72.845 116.200 72.900 116.200 H 78.900 C 78.955 116.200 79.000 116.155 79.000 116.100 V 113.200 C 79.000 113.100 78.900 113.200 79.000 113.200 H 84.800 C 84.900 113.200 84.800 113.100 84.800 113.200 V 116.100 C 84.800 116.155 84.845 116.200 84.900 116.200 H 90.900 C 90.955 116.200 91.000 116.155 91.000 116.100 V 113.200 C 91.000 113.100 90.900 113.200 91.000 113.200 H 96.800 C 96.900 113.200 96.800 113.100 96.800 113.200 V 116.100 C 96.800 116.155 96.845 116.200 96.900 116.200 H 102.900 C 102.955 116.200 103.000 116.155 103.000 116.100 V 113.200 C 103.000 113.100 102.900 113.200 103.000 113.200 H 108.800 C 108.900 113.200 108.800 113.100 108.800 113.200 V 116.100 C 108.800 116.155 108.845 116.200 108.900 116.200 H 114.900 C 114.955 116.200 115.000 116.155 115.000 116.100 V 113.200 C 115.000 113.100 114.900 113.200 115.000 113.200 H 120.800 C 120.900 113.200 120.800 113.100 120.800 113.200 V 116.100 C 120.800 116.155 120.845 116.200 120.900 116.200 H 126.900 C 126.955 116.200 127.000 116.155 127.000 116.100 V 113.200 C 127.000 113.100 126.900 113.200 127.000 113.200 H 138.400 C 138.455 113.200 138.500 113.155 138.500 113.100 V 102.200 C 138.500 102.100 138.400 102.200 138.500 102.200 H 141.400 C 141.455 102.200 141.500 102.155 141.500 102.100 V 96.100 C 141.500 96.045 141.455 96.000 141.400 96.000 H 138.500 C 138.400 96.000 138.500 96.100 138.500 96.000 V 90.200 C 138.500 90.100 138.400 90.200 138.500 90.200 H 141.400 C 141.455 90.200 141.500 90.155 141.500 90.100 V 84.100 C 141.500 84.045 141.455 84.000 141.400 84.000 H 138.500 C 138.400 84.000 138.500 84.100 138.500 84.000 V 78.200 C 138.500 78.100 138.400 78.200 138.500 78.200 H 141.400 C 141.455 78.200 141.500 78.155 141.500 78.100 V 72.100 C 141.500 72.045 141.455 72.000 141.400 72.000 H 138.500 C 138.400 72.000 138.500 72.100 138.500 72.000 V 66.200 C 138.500 66.100 138.400 66.200 138.500 66.200 H 141.400 C 141.455 66.200 141.500 66.155 141.500 66.100 V 60.100 C 141.500 60.045 141.455 60.000 141.400 60.000 H 138.500 C 138.400 60.000 138.500 60.100 138.500 60.000 V 54.200 C 138.500 54.100 138.400 54.200 138.500 54.200 H 141.400 C 141.455 54.200 141.500 54.155 141.500 54.100 V 48.100 C 141.500 48.045 141.455 48.000 141.400 48.000 H 138.500 C 138.400 48.000 138.500 48.100 138.500 48.000 V 42.200 C 138.500 42.100 138.400 42.200 138.500 42.200 H 141.400 C 141.455 42.200 141.500 42.155 141.500 42.100 V 36.100 C 141.500 36.045 141.455 36.000 141.400 36.000 H 138.500 C 138.400 36.000 138.500 36.100 138.500 36.000 V 30.200 C 138.500 30.100 138.400 30.200 138.500 30.200 H 141.400 C 141.455 30.200 141.500 30.155 141.500 30.100 V 24.100 C 141.500 24.045 141.455 24.000 141.400 24.000 H 138.500 C 138.400 24.000 138.500 24.100 138.500 24.000 V 13.100 C 138.500 13.045 138.455 13.000 138.400 13.000 H 127.000 C 126.900 13.000 127.000 13.100 127.000 13.000 V 10.100 C 127.000 10.045 126.955 10.000 126.900 10.000 H 120.900 C 120.845 10.000 120.800 10.045 120.800 10.100 V 13.000 C 120.800 13.100 120.900 13.000 120.800 13.000 H 115.000 C 114.900 13.000 115.000 13.100 115.000 13.000 V 10.100 C 115.000 10.045 114.955 10.000 114.900 10.000 H 108.900 C 108.845 10.000 108.800 10.045 108.800 10.100 V 13.000 C 108.800 13.100 108.900 13.000 108.800 13.000 H 103.000 C 102.900 13.000 103.000 13.100 103.000 13.000 V 10.100 C 103.000 10.045 102.955 10.000 102.900 10.000 H 96.900 C 96.845 10.000 96.800 10.045 96.800 10.100 V 13.000 C 96.800 13.100 96.900 13.000 96.800 13.000 H 91.000 C 90.900 13.000 91.000 13.100 91.000 13.000 V 10.100 C 91.000 10.045 90.955 10.000 90.900 10.000 H 84.900 C 84.845 10.000 84.800 10.045 84.800 10.100 V 13.000 C 84.800 13.100 84.900 13.000 84.800 13.000 H 79.000 C 78.900 13.000 79.000 13.100 79.000 13.000 V 10.100 C 79.000 10.045 78.955 10.000 78.900 10.000 H 72.900 C 72.845 10.000 72.800 10.045 72.800 10.100 V 13.000 C 72.800 13.100 72.900 13.000 72.800 13.000 H 67.000 C 66.900 13.000 67.000 13.100 67.000 13.000 V 10.100 C 67.000 10.045 66.955 10.000 66.900 10.000 H 60.900 C 60.845 10.000 60.800 10.045 60.800 10.100 V 13.000 C 60.800 13.100 60.900 13.000 60.800 13.000 H 55.000 C 54.900 13.000 55.000 13.100 55.000 13.000 V 10.100 C 55.000 10.045 54.955 10.000 54.900 10.000 H 48.900 C 48.845 10.000 48.800 10.045 48.800 10.100 V 13.000 C 48.800 13.100 48.900 13.000 48.800 13.000 H 43.000 C 42.900 13.000 43.000 13.100 43.000 13.000 V 10.100 C 43.000 10.045 42.955 10.000 42.900 10.000 H 36.900 C 36.845 10.000 36.800 10.045 36.800 10.100 V 13.000 C 36.800 13.100 36.900 13.000 36.800 13.000 H 31.000 C 30.900 13.000 31.000 13.100 31.000 13.000 V 10.100 C 31.000 10.045 30.955 10.000 30.900 10.000 H 24.900 C 24.845 10.000 24.800 10.045 24.800 10.100 V 13.000 C 24.800 13.100 24.900 13.000 24.800 13.000 H 13.400 C 13.345 13.000 13.300 13.045 13.300 13.100 V 24.000 C 13.300 24.100 13.400 24.000 13.300 24.000 H 10.400 C 10.345 24.000 10.300 24.045 10.300 24.100 V 30.100 C 10.300 30.155 10.345 30.200 10.400 30.200 H 13.300 C 13.400 30.200 13.300 30.100 13.300 30.200 V 36.000 C 13.300 36.100 13.400 36.000 13.300 36.000 H 10.400 C 10.345 36.000 10.300 36.045 10.300 36.100 V 42.100 C 10.300 42.155 10.345 42.200 10.400 42.200 H 13.300 C 13.400 42.200 13.300 42.100 13.300 42.200 V 48.000 C 13.300 48.100 13.400 48.000 13.300 48.000 H 10.400 C 10.345 48.000 10.300 48.045 10.300 48.100 V 54.100 C 10.300 54.155 10.345 54.200 10.400 54.200 H 13.300 C 13.400 54.200 13.300 54.100 13.300 54.200 V 60.000 C 13.300 60.100 13.400 60.000 13.300 60.000 H 10.400 C 10.345 60.000 10.300 60.045 10.300 60.100 V 66.100 C 10.300 66.155 10.345 66.200 10.400 66.200 H 13.300 C 13.400 66.200 13.300 66.100 13.300 66.200 V 72.000 C 13.300 72.100 13.400 72.000 13.300 72.000 H 10.400 C 10.345 72.000 10.300 72.045 10.300 72.100 V 78.100 C 10.300 78.155 10.345 78.200 10.400 78.200 H 13.300 C 13.400 78.200 13.300 78.100 13.300 78.200 V 84.000 C 13.300 84.100 13.400 84.000 13.300 84.000 H 10.400 C 10.345 84.000 10.300 84.045 10.300 84.100 V 90.100 C 10.300 90.155 10.345 90.200 10.400 90.200 H 13.300 C 13.400 90.200 13.300 90.100 13.300 90.200 V 96.000 C 13.300 96.100 13.400 96.000 13.300 96.000 H 10.400 C 10.345 96.000 10.300 96.045 10.300 96.100 V 102.100 C 10.300 102.155 10.345 102.200 10.400 102.200 H 13.300 C 13.400 102.200 13.300 102.100 13.300 102.200 V 113.100 C 13.300 113.155 13.345 113.200 13.400 113.200"
       stroke="rgb(0,0,0)"
       stroke-width="0.20"
       id="path4544"
       style="stroke:#ff0000;stroke-opacity:1;stroke-width:0.3;stroke-dasharray:none" />
  </g>
  <g
     id="p-6"
     style="fill:none;stroke-linecap:round;stroke-linejoin:round;stroke:#ff0000;stroke-opacity:1;stroke-width:0.3;stroke-dasharray:none">
    <path
       d="M 146.100 113.200 H 157.500 C 157.600 113.200 157.500 113.100 157.500 113.200 V 116.100 C 157.500 116.155 157.545 116.200 157.600 116.200 H 163.600 C 163.655 116.200 163.700 116.155 163.700 116.100 V 113.200 C 163.700 113.100 163.600 113.200 163.700 113.200 H 169.500 C 169.600 113.200 169.500 113.100 169.500 113.200 V 116.100 C 169.500 116.155 169.545 116.200 169.600 116.200 H 175.600 C 175.655 116.200 175.700 116.155 175.700 116.100 V 113.200 C 175.700 113.100 175.600 113.200 175.700 113.200 H 181.500 C 181.600 113.200 181.500 113.100 181.500 113.200 V 116.100 C 181.500 116.155 181.545 116.200 181.600 116.200 H 187.600 C 187.655 116.200 187.700 116.155 187.700 116.100 V 113.200 C 187.700 113.100 187.600 113.200 187.700 113.200 H 193.500 C 193.600 113.200 193.500 113.100 193.500 113.200 V 116.100 C 193.500 116.155 193.545 116.200 193.600 116.200 H 199.600 C 199.655 116.200 199.700 116.155 199.700 116.100 V 113.200 C 199.700 113.100 199.600 113.200 199.700 113.200 H 205.500 C 205.600 113.200 205.500 113.100 205.500 113.200 V 116.100 C 205.500 116.155 205.545 116.200 205.600 116.200 H 211.600 C 211.655 116.200 211.700 116.155 211.700 116.100 V 113.200 C 211.700 113.100 211.600 113.200 211.700 113.200 H 217.500 C 217.600 113.200 217.500 113.100 217.500 113.200 V 116.100 C 217.500 116.155 217.545 116.200 217.600 116.200 H 223.600 C 223.655 116.200 223.700 116.155 223.700 116.100 V 113.200 C 223.700 113.100 223.600 113.200 223.700 113.200 H 229.500 C 229.600 113.200 229.500 113.100 229.500 113.200 V 116.100 C 229.500 116.155 229.545 116.200 229.600 116.200 H 235.600 C 235.655 116.200 235.700 116.155 235.700 116.100 V 113.200 C 235.700 113.100 235.600 113.200 235.700 113.200 H 241.500 C 241.600 113.200 241.500 113.100 241.500 113.200 V 116.100 C 241.500 116.155 241.545 116.200 241.600 116.200 H 247.600 C 247.655 116.200 247.700 116.155 247.700 116.100 V 113.200 C 247.700 113.100 247.600 113.200 247.700 113.200 H 253.500 C 253.600 113.200 253.500 113.100 253.500 113.200 V 116.100 C 253.500 116.155 253.545 116.200 253.600 116.200 H 259.600 C 259.655 116.200 259.700 116.155 259.700 116.100 V 113.200 C 259.700 113.100 259.600 113.200 259.700 113.200 H 271.100 C 271.155 113.200 271.200 113.155 271.200 113.100 V 102.200 C 271.200 102.100 271.100 102.200 271.200 102.200 H 274.100 C 274.155 102.200 274.200 102.155 274.200 102.100 V 96.100 C 274.200 96.045 274.155 96.000 274.100 96.000 H 271.200 C 271.100 96.000 271.200 96.100 271.200 96.000 V 90.200 C 271.200 90.100 271.100 90.200 271.200 90.200 H 274.100 C 274.155 90.200 274.200 90.155 274.200 90.100 V 84.100 C 274.200 84.045 274.155 84.000 274.100 84.000 H 271.200 C 271.100 84.000 271.200 84.100 271.200 84.000 V 78.200 C 271.200 78.100 271.100 78.200 271.200 78.200 H 274.100 C 274.155 78.200 274.200 78.155 274.200 78.100 V 72.100 C 274.200 72.045 274.155 72.000 274.100 72.000 H 271.200 C 271.100 72.000 271.200 72.100 271.200 72.000 V 66.200 C 271.200 66.100 271.100 66.200 271.200 66.200 H 274.100 C 274.155 66.200 274.200 66.155 274.200 66.100 V 60.100 C 274.200 60.045 274.155 60.000 274.100 60.000 H 271.200 C 271.100 60.000 271.200 60.100 271.200 60.000 V 54.200 C 271.200 54.100 271.100 54.200 271.200 54.200 H 274.100 C 274.155 54.200 274.200 54.155 274.200 54.100 V 48.100 C 274.200 48.045 274.155 48.000 274.100 48.000 H 271.200 C 271.100 48.000 271.200 48.100 271.200 48.000 V 42.200 C 271.200 42.100 271.100 42.200 271.200 42.200 H 274.100 C 274.155 42.200 274.200 42.155 274.200 42.100 V 36.100 C 274.200 36.045 274.155 36.000 274.100 36.000 H 271.200 C 271.100 36.000 271.200 36.100 271.200 36.000 V 30.200 C 271.200 30.100 271.100 30.200 271.200 30.200 H 274.100 C 274.155 30.200 274.200 30.155 274.200 30.100 V 24.100 C 274.200 24.045 274.155 24.000 274.100 24.000 H 271.200 C 271.100 24.000 271.200 24.100 271.200 24.000 V 13.100 C 271.200 13.045 271.155 13.000 271.100 13.000 H 259.700 C 259.600 13.000 259.700 13.100 259.700 13.000 V 10.100 C 259.700 10.045 259.655 10.000 259.600 10.000 H 253.600 C 253.545 10.000 253.500 10.045 253.500 10.100 V 13.000 C 253.500 13.100 253.600 13.000 253.500 13.000 H 247.700 C 247.600 13.000 247.700 13.100 247.700 13.000 V 10.100 C 247.700 10.045 247.655 10.000 247.600 10.000 H 241.600 C 241.545 10.000 241.500 10.045 241.500 10.100 V 13.000 C 241.500 13.100 241.600 13.000 241.500 13.000 H 235.700 C 235.600 13.000 235.700 13.100 235.700 13.000 V 10.100 C 235.700 10.045 235.655 10.000 235.600 10.000 H 229.600 C 229.545 10.000 229.500 10.045 229.500 10.100 V 13.000 C 229.500 13.100 229.600 13.000 229.500 13.000 H 223.700 C 223.600 13.000 223.700 13.100 223.700 13.000 V 10.100 C 223.700 10.045 223.655 10.000 223.600 10.000 H 217.600 C 217.545 10.000 217.500 10.045 217.500 10.100 V 13.000 C 217.500 13.100 217.600 13.000 217.500 13.000 H 211.700 C 211.600 13.000 211.700 13.100 211.700 13.000 V 10.100 C 211.700 10.045 211.655 10.000 211.600 10.000 H 205.600 C 205.545 10.000 205.500 10.045 205.500 10.100 V 13.000 C 205.500 13.100 205.600 13.000 205.500 13.000 H 199.700 C 199.600 13.000 199.700 13.100 199.700 13.000 V 10.100 C 199.700 10.045 199.655 10.000 199.600 10.000 H 193.600 C 193.545 10.000 193.500 10.045 193.500 10.100 V 13.000 C 193.500 13.100 193.600 13.000 193.500 13.000 H 187.700 C 187.600 13.000 187.700 13.100 187.700 13.000 V 10.100 C 187.700 10.045 187.655 10.000 187.600 10.000 H 181.600 C 181.545 10.000 181.500 10.045 181.500 10.100 V 13.000 C 181.500 13.100 181.600 13.000 181.500 13.000 H 175.700 C 175.600 13.000 175.700 13.100 175.700 13.000 V 10.100 C 175.700 10.045 175.655 10.000 175.600 10.000 H 169.600 C 169.545 10.000 169.500 10.045 169.500 10.100 V 13.000 C 169.500 13.100 169.600 13.000 169.500 13.000 H 163.700 C 163.600 13.000 163.700 13.100 163.700 13.000 V 10.100 C 163.700 10.045 163.655 10.000 163.600 10.000 H 157.600 C 157.545 10.000 157.500 10.045 157.500 10.100 V 13.000 C 157.500 13.100 157.600 13.000 157.500 13.000 H 146.100 C 146.045 13.000 146.000 13.045 146.000 13.100 V 24.000 C 146.000 24.100 146.100 24.000 146.000 24.000 H 143.100 C 143.045 24.000 143.000 24.045 143.000 24.100 V 30.100 C 143.000 30.155 143.045 30.200 143.100 30.200 H 146.000 C 146.100 30.200 146.000 30.100 146.000 30.200 V 36.000 C 146.000 36.100 146.100 36.000 146.000 36.000 H 143.100 C 143.045 36.000 143.000 36.045 143.000 36.100 V 42.100 C 143.000 42.155 143.045 42.200 143.100 42.200 H 146.000 C 146.100 42.200 146.000 42.100 146.000 42.200 V 48.000 C 146.000 48.100 146.100 48.000 146.000 48.000 H 143.100 C 143.045 48.000 143.000 48.045 143.000 48.100 V 54.100 C 143.000 54.155 143.045 54.200 143.100 54.200 H 146.000 C 146.100 54.200 146.000 54.100 146.000 54.200 V 60.000 C 146.000 60.100 146.100 60.000 146.000 60.000 H 143.100 C 143.045 60.000 143.000 60.045 143.000 60.100 V 66.100 C 143.000 66.155 143.045 66.200 143.100 66.200 H 146.000 C 146.100 66.200 146.000 66.100 146.000 66.200 V 72.000 C 146.000 72.100 146.100 72.000 146.000 72.000 H 143.100 C 143.045 72.000 143.000 72.045 143.000 72.100 V 78.100 C 143.000 78.155 143.045 78.200 143.100 78.200 H 146.000 C 146.100 78.200 146.000 78.100 146.000 78.200 V 84.000 C 146.000 84.100 146.100 84.000 146.000 84.000 H 143.100 C 143.045 84.000 143.000 84.045 143.000 84.100 V 90.100 C 143.000 90.155 143.045 90.200 143.100 90.200 H 146.000 C 146.100 90.200 146.000 90.100 146.000 90.200 V 96.000 C 146.000 96.100 146.100 96.000 146.000 96.000 H 143.100 C 143.045 96.000 143.000 96.045 143.000 96.100 V 102.100 C 143.000 102.155 143.045 102.200 143.100 102.200 H 146.000 C 146.100 102.200 146.000 102.100 146.000 102.200 V 113.100 C 146.000 113.155 146.045 113.200 146.100 113.200"
       stroke="rgb(0,0,0)"
       stroke-width="0.20"
       id="path4549"
       style="stroke:#ff0000;stroke-opacity:1;stroke-width:0.3;stroke-dasharray:none" />
  </g>
  <rect
     style="fill:none;fill-opacity:0;stroke:#ff0000;stroke-width:0.296004;stroke-dasharray:none;stroke-opacity:1"
     id="rect654"
     width="19.703997"
     height="24.703997"
     x="111.16129"
     y="17.779169" />
  <path
     id="rect6785"
     style="fill:none;fill-opacity:0;stroke:#ff0000;stroke-width:0.3;stroke-dasharray:none;stroke-opacity:1"
     d="M 34.712093,32.758207 V 109.49512 H 111.44953 V 50.804134 H 93.45166 V 32.803682 c -18.051643,-0.08491 -39.453282,-0.04673 -58.739567,-0.04548 z"
     sodipodi:nodetypes="cccccccc" />
  <circle
     style="fill:none;fill-opacity:0;stroke:#ff0000;stroke-width:0.244512;stroke-dasharray:none;stroke-opacity:1"
     id="path6787"
     cx="101.91251"
     cy="42.463333"
     r="3.877744" />
  <g
     id="p-1"
     style="fill:none;stroke-linecap:round;stroke-linejoin:round;stroke-width:0.3;stroke-dasharray:none;stroke:#ff0000;stroke-opacity:1"
     transform="translate(-0.67604418,4.5679025)">
    <path
       d="m 13.4,151.6 h 11.5 c 0.055,0 0.1,-0.045 0.1,-0.1 v -2.9 c 0,-0.1 -0.1,0 0,0 h 5.8 c 0.1,0 0,-0.1 0,0 v 2.9 c 0,0.055 0.045,0.1 0.1,0.1 h 6 c 0.055,0 0.1,-0.045 0.1,-0.1 v -2.9 c 0,-0.1 -0.1,0 0,0 h 5.8 c 0.1,0 0,-0.1 0,0 v 2.9 c 0,0.055 0.045,0.1 0.1,0.1 h 6 c 0.055,0 0.1,-0.045 0.1,-0.1 v -2.9 c 0,-0.1 -0.1,0 0,0 h 5.8 c 0.1,0 0,-0.1 0,0 v 2.9 c 0,0.055 0.045,0.1 0.1,0.1 h 6 c 0.055,0 0.1,-0.045 0.1,-0.1 v -2.9 c 0,-0.1 -0.1,0 0,0 h 5.8 c 0.1,0 0,-0.1 0,0 v 2.9 c 0,0.055 0.045,0.1 0.1,0.1 h 6 c 0.055,0 0.1,-0.045 0.1,-0.1 v -2.9 c 0,-0.1 -0.1,0 0,0 h 5.8 c 0.1,0 0,-0.1 0,0 v 2.9 c 0,0.055 0.045,0.1 0.1,0.1 h 6 c 0.055,0 0.1,-0.045 0.1,-0.1 v -2.9 c 0,-0.1 -0.1,0 0,0 h 5.8 c 0.1,0 0,-0.1 0,0 v 2.9 c 0,0.055 0.045,0.1 0.1,0.1 h 6 c 0.055,0 0.1,-0.045 0.1,-0.1 v -2.9 c 0,-0.1 -0.1,0 0,0 h 5.8 c 0.1,0 0,-0.1 0,0 v 2.9 c 0,0.055 0.045,0.1 0.1,0.1 h 6 c 0.055,0 0.1,-0.045 0.1,-0.1 v -2.9 c 0,-0.1 -0.1,0 0,0 h 5.8 c 0.1,0 0,-0.1 0,0 v 2.9 c 0,0.055 0.045,0.1 0.1,0.1 h 6 c 0.055,0 0.1,-0.045 0.1,-0.1 v -2.9 c 0,-0.1 -0.1,0 0,0 h 5.8 c 0.1,0 0,-0.1 0,0 v 2.9 c 0,0.055 0.045,0.1 0.1,0.1 h 11.5 3 c 0.055,0 0.1,-0.045 0.1,-0.1 v -3 -2 c 0,-0.055 -0.045,-0.1 -0.1,-0.1 h -2.9 c -0.1,0 0,0.1 0,0 v -5.8 c 0,-0.1 -0.1,0 0,0 h 2.9 c 0.055,0 0.1,-0.045 0.1,-0.1 v -2 -3 c 0,-0.055 -0.045,-0.1 -0.1,-0.1 h -3 -11.5 c -0.055,0 -0.1,0.045 -0.1,0.1 v 2.9 c 0,0.1 0.1,0 0,0 H 121 c -0.1,0 0,0.1 0,0 v -2.9 c 0,-0.055 -0.045,-0.1 -0.1,-0.1 h -6 c -0.055,0 -0.1,0.045 -0.1,0.1 v 2.9 c 0,0.1 0.1,0 0,0 H 109 c -0.1,0 0,0.1 0,0 v -2.9 c 0,-0.055 -0.045,-0.1 -0.1,-0.1 h -6 c -0.055,0 -0.1,0.045 -0.1,0.1 v 2.9 c 0,0.1 0.1,0 0,0 H 97 c -0.1,0 0,0.1 0,0 v -2.9 c 0,-0.055 -0.045,-0.1 -0.1,-0.1 h -6 c -0.055,0 -0.1,0.045 -0.1,0.1 v 2.9 c 0,0.1 0.1,0 0,0 H 85 c -0.1,0 0,0.1 0,0 v -2.9 c 0,-0.055 -0.045,-0.1 -0.1,-0.1 h -6 c -0.055,0 -0.1,0.045 -0.1,0.1 v 2.9 c 0,0.1 0.1,0 0,0 H 73 c -0.1,0 0,0.1 0,0 v -2.9 c 0,-0.055 -0.045,-0.1 -0.1,-0.1 h -6 c -0.055,0 -0.1,0.045 -0.1,0.1 v 2.9 c 0,0.1 0.1,0 0,0 H 61 c -0.1,0 0,0.1 0,0 v -2.9 c 0,-0.055 -0.045,-0.1 -0.1,-0.1 h -6 c -0.055,0 -0.1,0.045 -0.1,0.1 v 2.9 c 0,0.1 0.1,0 0,0 H 49 c -0.1,0 0,0.1 0,0 v -2.9 c 0,-0.055 -0.045,-0.1 -0.1,-0.1 h -6 c -0.055,0 -0.1,0.045 -0.1,0.1 v 2.9 c 0,0.1 0.1,0 0,0 H 37 c -0.1,0 0,0.1 0,0 v -2.9 c 0,-0.055 -0.045,-0.1 -0.1,-0.1 h -6 c -0.055,0 -0.1,0.045 -0.1,0.1 v 2.9 c 0,0.1 0.1,0 0,0 H 25 c -0.1,0 0,0.1 0,0 v -2.9 c 0,-0.055 -0.045,-0.1 -0.1,-0.1 h -11.5 -3 c -0.055,0 -0.1,0.045 -0.1,0.1 v 3 2 c 0,0.055 0.045,0.1 0.1,0.1 h 2.9 c 0.1,0 0,-0.1 0,0 v 5.8 c 0,0.1 0.1,0 0,0 h -2.9 c -0.055,0 -0.1,0.045 -0.1,0.1 v 2 3 c 0,0.055 0.045,0.1 0.1,0.1 z"
       stroke="#000000"
       stroke-width="0.2"
       id="path7077"
       style="stroke-width:0.3;stroke-dasharray:none;stroke:#ff0000;stroke-opacity:1" />
  </g>
  <g
     id="p-2"
     style="fill:none;stroke-linecap:round;stroke-linejoin:round;stroke-width:0.3;stroke-dasharray:none;stroke:#ff0000;stroke-opacity:1"
     transform="translate(-0.67604418,4.5679025)">
    <path
       d="m 146.1,151.6 h 11 c 0.055,0 0.1,-0.045 0.1,-0.1 v -2.9 c 0,-0.1 -0.1,0 0,0 h 5.8 c 0.1,0 0,-0.1 0,0 v 2.9 c 0,0.055 0.045,0.1 0.1,0.1 h 6 c 0.055,0 0.1,-0.045 0.1,-0.1 v -2.9 c 0,-0.1 -0.1,0 0,0 h 5.8 c 0.1,0 0,-0.1 0,0 v 2.9 c 0,0.055 0.045,0.1 0.1,0.1 h 6 c 0.055,0 0.1,-0.045 0.1,-0.1 v -2.9 c 0,-0.1 -0.1,0 0,0 h 5.8 c 0.1,0 0,-0.1 0,0 v 2.9 c 0,0.055 0.045,0.1 0.1,0.1 h 6 c 0.055,0 0.1,-0.045 0.1,-0.1 v -2.9 c 0,-0.1 -0.1,0 0,0 h 5.8 c 0.1,0 0,-0.1 0,0 v 2.9 c 0,0.055 0.045,0.1 0.1,0.1 h 6 c 0.055,0 0.1,-0.045 0.1,-0.1 v -2.9 c 0,-0.1 -0.1,0 0,0 h 5.8 c 0.1,0 0,-0.1 0,0 v 2.9 c 0,0.055 0.045,0.1 0.1,0.1 h 6 c 0.055,0 0.1,-0.045 0.1,-0.1 v -2.9 c 0,-0.1 -0.1,0 0,0 h 5.8 c 0.1,0 0,-0.1 0,0 v 2.9 c 0,0.055 0.045,0.1 0.1,0.1 h 6 c 0.055,0 0.1,-0.045 0.1,-0.1 v -2.9 c 0,-0.1 -0.1,0 0,0 h 5.8 c 0.1,0 0,-0.1 0,0 v 2.9 c 0,0.055 0.045,0.1 0.1,0.1 h 11 c 0.055,0 0.1,-0.045 0.1,-0.1 v -3 -1.9 c 0,-0.1 -0.1,0 0,0 h 2.9 c 0.055,0 0.1,-0.045 0.1,-0.1 v -6 c 0,-0.055 -0.045,-0.1 -0.1,-0.1 h -2.9 c -0.1,0 0,0.1 0,0 v -1.9 -3 c 0,-0.055 -0.045,-0.1 -0.1,-0.1 h -11 c -0.055,0 -0.1,0.045 -0.1,0.1 v 2.9 c 0,0.1 0.1,0 0,0 h -5.8 c -0.1,0 0,0.1 0,0 v -2.9 c 0,-0.055 -0.045,-0.1 -0.1,-0.1 h -6 c -0.055,0 -0.1,0.045 -0.1,0.1 v 2.9 c 0,0.1 0.1,0 0,0 h -5.8 c -0.1,0 0,0.1 0,0 v -2.9 c 0,-0.055 -0.045,-0.1 -0.1,-0.1 h -6 c -0.055,0 -0.1,0.045 -0.1,0.1 v 2.9 c 0,0.1 0.1,0 0,0 h -5.8 c -0.1,0 0,0.1 0,0 v -2.9 c 0,-0.055 -0.045,-0.1 -0.1,-0.1 h -6 c -0.055,0 -0.1,0.045 -0.1,0.1 v 2.9 c 0,0.1 0.1,0 0,0 h -5.8 c -0.1,0 0,0.1 0,0 v -2.9 c 0,-0.055 -0.045,-0.1 -0.1,-0.1 h -6 c -0.055,0 -0.1,0.045 -0.1,0.1 v 2.9 c 0,0.1 0.1,0 0,0 h -5.8 c -0.1,0 0,0.1 0,0 v -2.9 c 0,-0.055 -0.045,-0.1 -0.1,-0.1 h -6 c -0.055,0 -0.1,0.045 -0.1,0.1 v 2.9 c 0,0.1 0.1,0 0,0 h -5.8 c -0.1,0 0,0.1 0,0 v -2.9 c 0,-0.055 -0.045,-0.1 -0.1,-0.1 h -6 c -0.055,0 -0.1,0.045 -0.1,0.1 v 2.9 c 0,0.1 0.1,0 0,0 h -5.8 c -0.1,0 0,0.1 0,0 v -2.9 c 0,-0.055 -0.045,-0.1 -0.1,-0.1 h -11 c -0.055,0 -0.1,0.045 -0.1,0.1 v 3 1.9 c 0,0.1 0.1,0 0,0 h -2.9 c -0.055,0 -0.1,0.045 -0.1,0.1 v 6 c 0,0.055 0.045,0.1 0.1,0.1 h 2.9 c 0.1,0 0,-0.1 0,0 v 1.9 3 c 0,0.055 0.045,0.1 0.1,0.1 z"
       stroke="#000000"
       stroke-width="0.2"
       id="path7080"
       style="stroke-width:0.3;stroke-dasharray:none;stroke:#ff0000;stroke-opacity:1" />
  </g>
  <g
     id="p-3"
     style="fill:none;stroke-linecap:round;stroke-linejoin:round;stroke-width:0.3;stroke-dasharray:none;stroke:#ff0000;stroke-opacity:1"
     transform="translate(-0.67604418,4.5679025)">
    <path
       d="m 146.1,133.9 h 11 c 0.055,0 0.1,-0.045 0.1,-0.1 v -2.9 c 0,-0.1 -0.1,0 0,0 h 5.8 c 0.1,0 0,-0.1 0,0 v 2.9 c 0,0.055 0.045,0.1 0.1,0.1 h 6 c 0.055,0 0.1,-0.045 0.1,-0.1 v -2.9 c 0,-0.1 -0.1,0 0,0 h 5.8 c 0.1,0 0,-0.1 0,0 v 2.9 c 0,0.055 0.045,0.1 0.1,0.1 h 6 c 0.055,0 0.1,-0.045 0.1,-0.1 v -2.9 c 0,-0.1 -0.1,0 0,0 h 5.8 c 0.1,0 0,-0.1 0,0 v 2.9 c 0,0.055 0.045,0.1 0.1,0.1 h 6 c 0.055,0 0.1,-0.045 0.1,-0.1 v -2.9 c 0,-0.1 -0.1,0 0,0 h 5.8 c 0.1,0 0,-0.1 0,0 v 2.9 c 0,0.055 0.045,0.1 0.1,0.1 h 6 c 0.055,0 0.1,-0.045 0.1,-0.1 v -2.9 c 0,-0.1 -0.1,0 0,0 h 5.8 c 0.1,0 0,-0.1 0,0 v 2.9 c 0,0.055 0.045,0.1 0.1,0.1 h 6 c 0.055,0 0.1,-0.045 0.1,-0.1 v -2.9 c 0,-0.1 -0.1,0 0,0 h 5.8 c 0.1,0 0,-0.1 0,0 v 2.9 c 0,0.055 0.045,0.1 0.1,0.1 h 6 c 0.055,0 0.1,-0.045 0.1,-0.1 v -2.9 c 0,-0.1 -0.1,0 0,0 h 5.8 c 0.1,0 0,-0.1 0,0 v 2.9 c 0,0.055 0.045,0.1 0.1,0.1 h 11 c 0.055,0 0.1,-0.045 0.1,-0.1 v -3 -1.9 c 0,-0.1 -0.1,0 0,0 h 2.9 c 0.055,0 0.1,-0.045 0.1,-0.1 v -6 c 0,-0.055 -0.045,-0.1 -0.1,-0.1 h -2.9 c -0.1,0 0,0.1 0,0 v -1.9 -3 c 0,-0.055 -0.045,-0.1 -0.1,-0.1 h -11 c -0.055,0 -0.1,0.045 -0.1,0.1 v 2.9 c 0,0.1 0.1,0 0,0 h -5.8 c -0.1,0 0,0.1 0,0 v -2.9 c 0,-0.055 -0.045,-0.1 -0.1,-0.1 h -6 c -0.055,0 -0.1,0.045 -0.1,0.1 v 2.9 c 0,0.1 0.1,0 0,0 h -5.8 c -0.1,0 0,0.1 0,0 v -2.9 c 0,-0.055 -0.045,-0.1 -0.1,-0.1 h -6 c -0.055,0 -0.1,0.045 -0.1,0.1 v 2.9 c 0,0.1 0.1,0 0,0 h -5.8 c -0.1,0 0,0.1 0,0 v -2.9 c 0,-0.055 -0.045,-0.1 -0.1,-0.1 h -6 c -0.055,0 -0.1,0.045 -0.1,0.1 v 2.9 c 0,0.1 0.1,0 0,0 h -5.8 c -0.1,0 0,0.1 0,0 v -2.9 c 0,-0.055 -0.045,-0.1 -0.1,-0.1 h -6 c -0.055,0 -0.1,0.045 -0.1,0.1 v 2.9 c 0,0.1 0.1,0 0,0 h -5.8 c -0.1,0 0,0.1 0,0 v -2.9 c 0,-0.055 -0.045,-0.1 -0.1,-0.1 h -6 c -0.055,0 -0.1,0.045 -0.1,0.1 v 2.9 c 0,0.1 0.1,0 0,0 h -5.8 c -0.1,0 0,0.1 0,0 v -2.9 c 0,-0.055 -0.045,-0.1 -0.1,-0.1 h -6 c -0.055,0 -0.1,0.045 -0.1,0.1 v 2.9 c 0,0.1 0.1,0 0,0 h -5.8 c -0.1,0 0,0.1 0,0 v -2.9 c 0,-0.055 -0.045,-0.1 -0.1,-0.1 h -11 c -0.055,0 -0.1,0.045 -0.1,0.1 v 3 1.9 c 0,0.1 0.1,0 0,0 h -2.9 c -0.055,0 -0.1,0.045 -0.1,0.1 v 6 c 0,0.055 0.045,0.1 0.1,0.1 h 2.9 c 0.1,0 0,-0.1 0,0 v 1.9 3 c 0,0.055 0.045,0.1 0.1,0.1 z"
       stroke="#000000"
       stroke-width="0.2"
       id="path7083"
       style="stroke-width:0.3;stroke-dasharray:none;stroke:#ff0000;stroke-opacity:1" />
  </g>
  <g
     id="p-4"
     style="fill:none;stroke-linecap:round;stroke-linejoin:round;stroke-width:0.3;stroke-dasharray:none;stroke:#ff0000;stroke-opacity:1"
     transform="translate(-0.67604418,4.5679025)">
    <path
       d="m 13.4,133.9 h 11.5 c 0.055,0 0.1,-0.045 0.1,-0.1 v -2.9 c 0,-0.1 -0.1,0 0,0 h 5.8 c 0.1,0 0,-0.1 0,0 v 2.9 c 0,0.055 0.045,0.1 0.1,0.1 h 6 c 0.055,0 0.1,-0.045 0.1,-0.1 v -2.9 c 0,-0.1 -0.1,0 0,0 h 5.8 c 0.1,0 0,-0.1 0,0 v 2.9 c 0,0.055 0.045,0.1 0.1,0.1 h 6 c 0.055,0 0.1,-0.045 0.1,-0.1 v -2.9 c 0,-0.1 -0.1,0 0,0 h 5.8 c 0.1,0 0,-0.1 0,0 v 2.9 c 0,0.055 0.045,0.1 0.1,0.1 h 6 c 0.055,0 0.1,-0.045 0.1,-0.1 v -2.9 c 0,-0.1 -0.1,0 0,0 h 5.8 c 0.1,0 0,-0.1 0,0 v 2.9 c 0,0.055 0.045,0.1 0.1,0.1 h 6 c 0.055,0 0.1,-0.045 0.1,-0.1 v -2.9 c 0,-0.1 -0.1,0 0,0 h 5.8 c 0.1,0 0,-0.1 0,0 v 2.9 c 0,0.055 0.045,0.1 0.1,0.1 h 6 c 0.055,0 0.1,-0.045 0.1,-0.1 v -2.9 c 0,-0.1 -0.1,0 0,0 h 5.8 c 0.1,0 0,-0.1 0,0 v 2.9 c 0,0.055 0.045,0.1 0.1,0.1 h 6 c 0.055,0 0.1,-0.045 0.1,-0.1 v -2.9 c 0,-0.1 -0.1,0 0,0 h 5.8 c 0.1,0 0,-0.1 0,0 v 2.9 c 0,0.055 0.045,0.1 0.1,0.1 h 6 c 0.055,0 0.1,-0.045 0.1,-0.1 v -2.9 c 0,-0.1 -0.1,0 0,0 h 5.8 c 0.1,0 0,-0.1 0,0 v 2.9 c 0,0.055 0.045,0.1 0.1,0.1 h 6 c 0.055,0 0.1,-0.045 0.1,-0.1 v -2.9 c 0,-0.1 -0.1,0 0,0 h 5.8 c 0.1,0 0,-0.1 0,0 v 2.9 c 0,0.055 0.045,0.1 0.1,0.1 h 11.5 3 c 0.055,0 0.1,-0.045 0.1,-0.1 v -3 -2 c 0,-0.055 -0.045,-0.1 -0.1,-0.1 h -2.9 c -0.1,0 0,0.1 0,0 v -5.8 c 0,-0.1 -0.1,0 0,0 h 2.9 c 0.055,0 0.1,-0.045 0.1,-0.1 v -2 -3 c 0,-0.055 -0.045,-0.1 -0.1,-0.1 h -3 -11.5 c -0.055,0 -0.1,0.045 -0.1,0.1 v 2.9 c 0,0.1 0.1,0 0,0 H 121 c -0.1,0 0,0.1 0,0 v -2.9 c 0,-0.055 -0.045,-0.1 -0.1,-0.1 h -6 c -0.055,0 -0.1,0.045 -0.1,0.1 v 2.9 c 0,0.1 0.1,0 0,0 H 109 c -0.1,0 0,0.1 0,0 v -2.9 c 0,-0.055 -0.045,-0.1 -0.1,-0.1 h -6 c -0.055,0 -0.1,0.045 -0.1,0.1 v 2.9 c 0,0.1 0.1,0 0,0 H 97 c -0.1,0 0,0.1 0,0 v -2.9 c 0,-0.055 -0.045,-0.1 -0.1,-0.1 h -6 c -0.055,0 -0.1,0.045 -0.1,0.1 v 2.9 c 0,0.1 0.1,0 0,0 H 85 c -0.1,0 0,0.1 0,0 v -2.9 c 0,-0.055 -0.045,-0.1 -0.1,-0.1 h -6 c -0.055,0 -0.1,0.045 -0.1,0.1 v 2.9 c 0,0.1 0.1,0 0,0 H 73 c -0.1,0 0,0.1 0,0 v -2.9 c 0,-0.055 -0.045,-0.1 -0.1,-0.1 h -6 c -0.055,0 -0.1,0.045 -0.1,0.1 v 2.9 c 0,0.1 0.1,0 0,0 H 61 c -0.1,0 0,0.1 0,0 v -2.9 c 0,-0.055 -0.045,-0.1 -0.1,-0.1 h -6 c -0.055,0 -0.1,0.045 -0.1,0.1 v 2.9 c 0,0.1 0.1,0 0,0 H 49 c -0.1,0 0,0.1 0,0 v -2.9 c 0,-0.055 -0.045,-0.1 -0.1,-0.1 h -6 c -0.055,0 -0.1,0.045 -0.1,0.1 v 2.9 c 0,0.1 0.1,0 0,0 H 37 c -0.1,0 0,0.1 0,0 v -2.9 c 0,-0.055 -0.045,-0.1 -0.1,-0.1 h -6 c -0.055,0 -0.1,0.045 -0.1,0.1 v 2.9 c 0,0.1 0.1,0 0,0 H 25 c -0.1,0 0,0.1 0,0 v -2.9 c 0,-0.055 -0.045,-0.1 -0.1,-0.1 h -11.5 -3 c -0.055,0 -0.1,0.045 -0.1,0.1 v 3 2 c 0,0.055 0.045,0.1 0.1,0.1 h 2.9 c 0.1,0 0,-0.1 0,0 v 5.8 c 0,0.1 0.1,0 0,0 h -2.9 c -0.055,0 -0.1,0.045 -0.1,0.1 v 2 3 c 0,0.055 0.045,0.1 0.1,0.1 z"
       stroke="#000000"
       stroke-width="0.2"
       id="path7086"
       style="stroke-width:0.3;stroke-dasharray:none;stroke:#ff0000;stroke-opacity:1" />
  </g>
</svg>
